<svg version="1.1" id="Layer_1" xmlns="http://www.w3.org/2000/svg" xmlns:xlink="http://www.w3.org/1999/xlink" x="0px" y="0px"
	 width="100%" viewBox="0 0 280 298" enable-background="new 0 0 280 298" xml:space="preserve">
<path fill="#FFFFFF" opacity="1.000000" stroke="none" 
	d="
M191.000000,299.000000 
	C127.360657,299.000000 64.221321,299.000000 1.040990,299.000000 
	C1.040990,199.736984 1.040990,100.473938 1.040990,1.105449 
	C94.222549,1.105449 187.445267,1.105449 280.833984,1.105449 
	C280.833984,100.333099 280.833984,199.666534 280.833984,299.000000 
	C251.140762,299.000000 221.320389,299.000000 191.000000,299.000000 
M229.338638,170.976364 
	C225.631165,169.775742 224.569946,167.341843 224.676590,163.414459 
	C224.984024,152.091751 224.862854,140.754410 224.730789,129.424896 
	C224.697891,126.603554 225.531738,125.063812 228.136307,123.617905 
	C241.185135,116.373940 245.547684,101.658058 238.533310,89.515564 
	C231.337250,77.058556 216.386566,73.676216 203.390015,81.330193 
	C201.903351,82.205727 199.182281,82.488342 197.752731,81.715538 
	C187.944061,76.413124 178.434799,70.554131 168.597595,65.308578 
	C164.436951,63.089977 162.868866,60.626690 162.929825,55.695560 
	C163.133255,39.236958 146.272202,27.728582 130.755432,33.265404 
	C119.228683,37.378475 113.382576,47.494747 114.493935,61.755432 
	C102.993507,68.490135 91.432091,75.395897 79.680130,81.960564 
	C78.307678,82.727219 75.543716,82.179550 74.007660,81.263718 
	C68.650558,78.069649 63.053040,76.343086 56.863937,77.406822 
	C45.970215,79.279144 37.762093,87.408234 36.132694,97.682663 
	C34.415455,108.510956 39.579288,118.290283 49.577141,123.853134 
	C51.094116,124.697197 52.806099,126.845390 52.844818,128.429062 
	C53.146126,140.752792 53.157524,153.087524 52.967480,165.414352 
	C52.943954,166.940262 51.486324,168.746841 50.213898,169.889633 
	C47.280437,172.524185 43.438435,174.345581 41.057095,177.359665 
	C33.536587,186.878540 34.191628,199.852844 42.066696,208.527954 
	C50.544708,217.867203 62.725403,219.433334 73.808495,212.835052 
	C75.255089,211.973831 77.790894,211.332458 79.048401,212.014969 
	C90.308182,218.126236 101.427727,224.500519 112.476685,230.987915 
	C113.503807,231.590988 114.361679,233.545868 114.281609,234.808609 
	C113.357620,249.379303 123.633995,261.538635 137.454269,261.993652 
	C152.508453,262.489288 163.293457,251.819916 163.010330,236.453796 
	C162.958603,233.646469 163.558136,231.832504 166.085541,230.388657 
	C176.488647,224.445602 186.736237,218.226395 197.219482,212.431641 
	C198.776367,211.571030 201.363419,212.112610 203.344101,212.568909 
	C208.751999,213.814651 214.162796,216.769180 219.441574,216.498138 
	C230.654007,215.922455 238.502899,208.403259 240.982635,198.066055 
	C243.517914,187.497391 239.576859,177.951904 229.338638,170.976364 
z"/>
<path fill="#49A59A" opacity="1.000000" stroke="none" 
	d="
M229.653229,171.181854 
	C239.576859,177.951904 243.517914,187.497391 240.982635,198.066055 
	C238.502899,208.403259 230.654007,215.922455 219.441574,216.498138 
	C214.162796,216.769180 208.751999,213.814651 203.344101,212.568909 
	C201.363419,212.112610 198.776367,211.571030 197.219482,212.431641 
	C186.736237,218.226395 176.488647,224.445602 166.085541,230.388657 
	C163.558136,231.832504 162.958603,233.646469 163.010330,236.453796 
	C163.293457,251.819916 152.508453,262.489288 137.454269,261.993652 
	C123.633995,261.538635 113.357620,249.379303 114.281609,234.808609 
	C114.361679,233.545868 113.503807,231.590988 112.476685,230.987915 
	C101.427727,224.500519 90.308182,218.126236 79.048401,212.014969 
	C77.790894,211.332458 75.255089,211.973831 73.808495,212.835052 
	C62.725403,219.433334 50.544708,217.867203 42.066696,208.527954 
	C34.191628,199.852844 33.536587,186.878540 41.057095,177.359665 
	C43.438435,174.345581 47.280437,172.524185 50.213898,169.889633 
	C51.486324,168.746841 52.943954,166.940262 52.967480,165.414352 
	C53.157524,153.087524 53.146126,140.752792 52.844818,128.429062 
	C52.806099,126.845390 51.094116,124.697197 49.577141,123.853134 
	C39.579288,118.290283 34.415455,108.510956 36.132694,97.682663 
	C37.762093,87.408234 45.970215,79.279144 56.863937,77.406822 
	C63.053040,76.343086 68.650558,78.069649 74.007660,81.263718 
	C75.543716,82.179550 78.307678,82.727219 79.680130,81.960564 
	C91.432091,75.395897 102.993507,68.490135 114.493935,61.755432 
	C113.382576,47.494747 119.228683,37.378475 130.755432,33.265404 
	C146.272202,27.728582 163.133255,39.236958 162.929825,55.695560 
	C162.868866,60.626690 164.436951,63.089977 168.597595,65.308578 
	C178.434799,70.554131 187.944061,76.413124 197.752731,81.715538 
	C199.182281,82.488342 201.903351,82.205727 203.390015,81.330193 
	C216.386566,73.676216 231.337250,77.058556 238.533310,89.515564 
	C245.547684,101.658058 241.185135,116.373940 228.136307,123.617905 
	C225.531738,125.063812 224.697891,126.603554 224.730789,129.424896 
	C224.862854,140.754410 224.984024,152.091751 224.676590,163.414459 
	C224.569946,167.341843 225.631165,169.775742 229.653229,171.181854 
M180.337372,84.145912 
	C175.426270,81.361778 170.296555,78.895081 165.664688,75.705452 
	C160.901855,72.425644 156.789261,70.966515 152.748856,76.476501 
	C152.298523,77.090622 151.398331,77.561958 150.627655,77.724586 
	C144.172348,79.086769 143.215973,83.519859 143.955627,89.125763 
	C144.235886,91.249863 143.788025,93.470970 144.077194,95.592651 
	C144.285172,97.118423 144.787888,98.917374 145.805496,99.968910 
	C152.740356,107.134827 159.791092,114.192459 166.967621,121.115875 
	C167.867615,121.984123 170.119232,122.595825 171.072739,122.081314 
	C178.083954,118.298126 184.940735,114.225929 191.794373,110.157509 
	C192.534470,109.718178 193.345901,108.772980 193.447174,107.976364 
	C195.313553,93.294403 194.925598,92.605621 180.337372,84.145912 
M144.361862,195.581696 
	C144.361862,201.532043 144.361862,207.482407 144.361862,212.600159 
	C148.622360,215.452087 152.333588,218.202774 156.324356,220.459015 
	C157.668732,221.219055 160.107346,221.411102 161.391800,220.692932 
	C171.546341,215.015564 181.587875,209.129578 191.527420,203.082916 
	C192.697556,202.371048 193.609665,200.315704 193.653564,198.853485 
	C193.762131,195.237869 193.552109,191.562515 192.956436,187.996979 
	C192.655029,186.192764 191.672256,183.901688 190.252945,182.990341 
	C184.524536,179.312103 178.396667,176.258362 172.644119,172.614334 
	C170.016998,170.950165 168.445129,171.085724 166.294495,173.322067 
	C159.259186,180.637680 152.010284,187.747864 144.361862,195.581696 
M96.872040,116.631088 
	C100.595688,118.770935 104.319336,120.910782 108.566124,123.351265 
	C114.453560,117.347794 119.940887,111.083046 126.142258,105.630394 
	C131.567566,100.860123 134.026917,95.704674 133.411819,88.357399 
	C133.004639,83.493752 133.140656,79.502327 127.300591,77.879089 
	C124.931488,77.220604 123.143295,74.668030 120.889442,73.311920 
	C119.845810,72.683975 117.970856,72.244530 117.065948,72.760300 
	C105.703339,79.236679 94.449387,85.903694 83.387856,92.392708 
	C83.950211,95.461273 85.407349,98.355576 84.725937,100.600838 
	C82.248222,108.764915 87.292732,111.789558 93.192978,114.568039 
	C94.242104,115.062096 95.232819,115.680161 96.872040,116.631088 
M133.219391,202.612961 
	C132.577698,199.656723 132.878204,195.861435 131.126190,193.893951 
	C124.607819,186.574127 117.484810,179.781860 110.391174,172.998199 
	C109.449188,172.097382 106.981758,171.657822 105.880127,172.243927 
	C99.280975,175.754974 92.830505,179.556183 86.447578,183.452408 
	C85.381889,184.102921 84.298866,185.664429 84.237808,186.856873 
	C83.988945,191.717743 84.134155,196.598770 84.134155,202.316528 
	C95.237396,208.642929 107.179527,215.447327 118.911598,222.132019 
	C121.814270,219.943359 124.070068,217.116272 126.888206,216.345657 
	C133.283173,214.596939 133.851501,210.351318 133.228302,205.061508 
	C133.170303,204.569107 133.220139,204.063980 133.219391,202.612961 
M85.917709,171.416412 
	C90.595848,168.677155 95.273979,165.937881 101.481209,162.303253 
	C95.417885,156.900253 90.025269,152.094894 83.768852,146.519836 
	C89.670952,141.097061 94.888474,136.303268 100.574471,131.079056 
	C92.778656,126.586594 85.654785,122.481339 79.476631,118.921074 
	C74.556992,121.327431 70.336266,123.169334 66.370239,125.453484 
	C64.996048,126.244904 63.364304,128.132538 63.362579,129.521332 
	C63.347775,141.467422 63.619450,153.415878 64.007256,165.357071 
	C64.043144,166.462051 65.241768,167.946304 66.299812,168.527420 
	C70.440842,170.801895 74.742218,172.784454 79.443680,175.102081 
	C80.970512,174.243088 83.137276,173.024063 85.917709,171.416412 
M188.747391,169.783844 
	C194.524658,173.840134 200.282181,176.980286 206.507843,170.404449 
	C207.325851,169.540436 208.891708,169.191605 210.171143,168.995773 
	C213.219696,168.529114 214.115326,166.936722 214.066513,163.892990 
	C213.890472,152.915695 214.000259,141.933823 213.995316,130.953690 
	C213.994797,129.790009 214.362808,127.848091 213.861862,127.582199 
	C208.417984,124.692619 202.379837,119.244164 197.398926,120.047073 
	C190.413956,121.173019 184.187241,127.002861 176.096848,131.717697 
	C182.275284,136.960648 187.669083,141.537796 193.062881,146.114929 
	C193.216782,147.001907 193.370697,147.888901 193.524597,148.775879 
	C188.123230,153.299530 182.721878,157.823181 176.894150,162.703918 
	C181.324692,165.335281 184.730011,167.357742 188.747391,169.783844 
M133.668137,134.944824 
	C133.747513,147.762863 133.841568,160.580826 133.900925,173.398956 
	C133.938370,181.484024 133.912079,181.339661 142.196457,181.167465 
	C145.321716,181.102493 146.154999,179.946060 146.141663,177.010849 
	C146.051651,157.191132 146.142395,137.370407 145.986221,117.551506 
	C145.975128,116.141342 144.523788,113.605225 143.636581,113.557564 
	C141.204285,113.426910 137.002426,113.701805 136.532669,114.953712 
	C133.864838,122.063660 128.386490,124.501640 121.743156,126.116333 
	C120.523216,126.412834 119.348633,129.208908 119.252617,130.913147 
	C119.198608,131.871811 121.291435,133.659073 122.595551,133.849213 
	C126.024765,134.349258 129.551682,134.179199 133.668137,134.944824 
M229.975739,186.905930 
	C229.183945,185.648315 228.541718,184.259857 227.575150,183.155151 
	C222.709915,177.594604 213.264069,177.145142 207.834671,182.135056 
	C201.958328,187.535736 201.809509,196.465149 207.502640,202.059113 
	C211.949188,206.428177 218.621033,207.351746 224.022369,204.345825 
	C229.845139,201.105362 232.087067,195.085907 229.975739,186.905930 
M230.817093,104.838882 
	C230.875534,103.349777 231.085098,101.848602 230.967209,100.373589 
	C230.334213,92.453461 222.731415,86.710564 214.768570,88.066292 
	C207.080551,89.375221 202.023758,97.092033 203.859177,104.714310 
	C205.271606,110.579948 209.607254,114.625740 215.047653,115.154755 
	C222.725922,115.901382 227.214279,113.138428 230.817093,104.838882 
M147.445892,67.099960 
	C152.839340,61.725697 154.066528,56.440426 151.282318,50.577190 
	C148.646133,45.025669 143.518326,42.259216 136.994919,42.869118 
	C131.229050,43.408195 126.549782,47.508820 125.309387,53.455921 
	C124.162910,58.952721 125.813980,63.647923 130.238556,67.161324 
	C135.623627,71.437439 141.227768,71.057571 147.445892,67.099960 
M70.400047,201.870819 
	C71.353867,200.333862 72.601654,198.903976 73.207573,197.240311 
	C75.197456,191.776749 74.159294,186.803543 70.112892,182.575745 
	C66.456612,178.755569 59.866890,177.341827 54.957237,179.645203 
	C49.991150,181.975052 46.855888,185.754517 46.757423,191.621307 
	C46.662743,197.262390 48.702766,201.663239 53.744350,204.366745 
	C59.528519,207.468445 64.910423,206.525162 70.400047,201.870819 
M50.380421,111.074036 
	C56.573154,116.696907 64.585548,116.910553 69.955788,111.595985 
	C75.368179,106.239685 75.606812,97.933868 70.509460,92.324013 
	C65.644287,86.969673 57.377125,86.372253 51.628658,90.959610 
	C45.885063,95.543091 45.119419,103.966187 50.380421,111.074036 
M144.854401,225.253693 
	C135.213287,221.554596 125.734253,226.886505 125.014595,236.413498 
	C124.521667,242.939041 128.777283,249.174515 134.861084,250.840927 
	C141.554932,252.674393 148.691757,249.354843 151.425385,243.136383 
	C154.367859,236.442841 152.329834,230.402206 144.854401,225.253693 
z"/>
<path fill="#FDFEFE" opacity="1.000000" stroke="none" 
	d="
M180.656799,84.326149 
	C194.925598,92.605621 195.313553,93.294403 193.447174,107.976364 
	C193.345901,108.772980 192.534470,109.718178 191.794373,110.157509 
	C184.940735,114.225929 178.083954,118.298126 171.072739,122.081314 
	C170.119232,122.595825 167.867615,121.984123 166.967621,121.115875 
	C159.791092,114.192459 152.740356,107.134827 145.805496,99.968910 
	C144.787888,98.917374 144.285172,97.118423 144.077194,95.592651 
	C143.788025,93.470970 144.235886,91.249863 143.955627,89.125763 
	C143.215973,83.519859 144.172348,79.086769 150.627655,77.724586 
	C151.398331,77.561958 152.298523,77.090622 152.748856,76.476501 
	C156.789261,70.966515 160.901855,72.425644 165.664688,75.705452 
	C170.296555,78.895081 175.426270,81.361778 180.656799,84.326149 
z"/>
<path fill="#FDFEFE" opacity="1.000000" stroke="none" 
	d="
M144.602692,195.259369 
	C152.010284,187.747864 159.259186,180.637680 166.294495,173.322067 
	C168.445129,171.085724 170.016998,170.950165 172.644119,172.614334 
	C178.396667,176.258362 184.524536,179.312103 190.252945,182.990341 
	C191.672256,183.901688 192.655029,186.192764 192.956436,187.996979 
	C193.552109,191.562515 193.762131,195.237869 193.653564,198.853485 
	C193.609665,200.315704 192.697556,202.371048 191.527420,203.082916 
	C181.587875,209.129578 171.546341,215.015564 161.391800,220.692932 
	C160.107346,221.411102 157.668732,221.219055 156.324356,220.459015 
	C152.333588,218.202774 148.622360,215.452087 144.361862,212.600159 
	C144.361862,207.482407 144.361862,201.532043 144.602692,195.259369 
z"/>
<path fill="#FDFEFE" opacity="1.000000" stroke="none" 
	d="
M96.561279,116.436028 
	C95.232819,115.680161 94.242104,115.062096 93.192978,114.568039 
	C87.292732,111.789558 82.248222,108.764915 84.725937,100.600838 
	C85.407349,98.355576 83.950211,95.461273 83.387856,92.392708 
	C94.449387,85.903694 105.703339,79.236679 117.065948,72.760300 
	C117.970856,72.244530 119.845810,72.683975 120.889442,73.311920 
	C123.143295,74.668030 124.931488,77.220604 127.300591,77.879089 
	C133.140656,79.502327 133.004639,83.493752 133.411819,88.357399 
	C134.026917,95.704674 131.567566,100.860123 126.142258,105.630394 
	C119.940887,111.083046 114.453560,117.347794 108.566124,123.351265 
	C104.319336,120.910782 100.595688,118.770935 96.561279,116.436028 
z"/>
<path fill="#FDFEFE" opacity="1.000000" stroke="none" 
	d="
M133.219650,203.088867 
	C133.220139,204.063980 133.170303,204.569107 133.228302,205.061508 
	C133.851501,210.351318 133.283173,214.596939 126.888206,216.345657 
	C124.070068,217.116272 121.814270,219.943359 118.911598,222.132019 
	C107.179527,215.447327 95.237396,208.642929 84.134155,202.316528 
	C84.134155,196.598770 83.988945,191.717743 84.237808,186.856873 
	C84.298866,185.664429 85.381889,184.102921 86.447578,183.452408 
	C92.830505,179.556183 99.280975,175.754974 105.880127,172.243927 
	C106.981758,171.657822 109.449188,172.097382 110.391174,172.998199 
	C117.484810,179.781860 124.607819,186.574127 131.126190,193.893951 
	C132.878204,195.861435 132.577698,199.656723 133.219650,203.088867 
z"/>
<path fill="#FCFEFE" opacity="1.000000" stroke="none" 
	d="
M85.610878,171.610718 
	C83.137276,173.024063 80.970512,174.243088 79.443680,175.102081 
	C74.742218,172.784454 70.440842,170.801895 66.299812,168.527420 
	C65.241768,167.946304 64.043144,166.462051 64.007256,165.357071 
	C63.619450,153.415878 63.347775,141.467422 63.362579,129.521332 
	C63.364304,128.132538 64.996048,126.244904 66.370239,125.453484 
	C70.336266,123.169334 74.556992,121.327431 79.476631,118.921074 
	C85.654785,122.481339 92.778656,126.586594 100.574471,131.079056 
	C94.888474,136.303268 89.670952,141.097061 83.768852,146.519836 
	C90.025269,152.094894 95.417885,156.900253 101.481209,162.303253 
	C95.273979,165.937881 90.595848,168.677155 85.610878,171.610718 
z"/>
<path fill="#FDFEFE" opacity="1.000000" stroke="none" 
	d="
M188.441360,169.582031 
	C184.730011,167.357742 181.324692,165.335281 176.894150,162.703918 
	C182.721878,157.823181 188.123230,153.299530 193.524597,148.775879 
	C193.370697,147.888901 193.216782,147.001907 193.062881,146.114929 
	C187.669083,141.537796 182.275284,136.960648 176.096848,131.717697 
	C184.187241,127.002861 190.413956,121.173019 197.398926,120.047073 
	C202.379837,119.244164 208.417984,124.692619 213.861862,127.582199 
	C214.362808,127.848091 213.994797,129.790009 213.995316,130.953690 
	C214.000259,141.933823 213.890472,152.915695 214.066513,163.892990 
	C214.115326,166.936722 213.219696,168.529114 210.171143,168.995773 
	C208.891708,169.191605 207.325851,169.540436 206.507843,170.404449 
	C200.282181,176.980286 194.524658,173.840134 188.441360,169.582031 
z"/>
<path fill="#FEFEFE" opacity="1.000000" stroke="none" 
	d="
M133.353912,134.610443 
	C129.551682,134.179199 126.024765,134.349258 122.595551,133.849213 
	C121.291435,133.659073 119.198608,131.871811 119.252617,130.913147 
	C119.348633,129.208908 120.523216,126.412834 121.743156,126.116333 
	C128.386490,124.501640 133.864838,122.063660 136.532669,114.953712 
	C137.002426,113.701805 141.204285,113.426910 143.636581,113.557564 
	C144.523788,113.605225 145.975128,116.141342 145.986221,117.551506 
	C146.142395,137.370407 146.051651,157.191132 146.141663,177.010849 
	C146.154999,179.946060 145.321716,181.102493 142.196457,181.167465 
	C133.912079,181.339661 133.938370,181.484024 133.900925,173.398956 
	C133.841568,160.580826 133.747513,147.762863 133.353912,134.610443 
z"/>
<path fill="#FCFEFE" opacity="1.000000" stroke="none" 
	d="
M230.107574,187.279770 
	C232.087067,195.085907 229.845139,201.105362 224.022369,204.345825 
	C218.621033,207.351746 211.949188,206.428177 207.502640,202.059113 
	C201.809509,196.465149 201.958328,187.535736 207.834671,182.135056 
	C213.264069,177.145142 222.709915,177.594604 227.575150,183.155151 
	C228.541718,184.259857 229.183945,185.648315 230.107574,187.279770 
z"/>
<path fill="#FCFEFE" opacity="1.000000" stroke="none" 
	d="
M230.689468,105.221695 
	C227.214279,113.138428 222.725922,115.901382 215.047653,115.154755 
	C209.607254,114.625740 205.271606,110.579948 203.859177,104.714310 
	C202.023758,97.092033 207.080551,89.375221 214.768570,88.066292 
	C222.731415,86.710564 230.334213,92.453461 230.967209,100.373589 
	C231.085098,101.848602 230.875534,103.349777 230.689468,105.221695 
z"/>
<path fill="#FCFEFE" opacity="1.000000" stroke="none" 
	d="
M147.154999,67.346863 
	C141.227768,71.057571 135.623627,71.437439 130.238556,67.161324 
	C125.813980,63.647923 124.162910,58.952721 125.309387,53.455921 
	C126.549782,47.508820 131.229050,43.408195 136.994919,42.869118 
	C143.518326,42.259216 148.646133,45.025669 151.282318,50.577190 
	C154.066528,56.440426 152.839340,61.725697 147.154999,67.346863 
z"/>
<path fill="#FCFEFE" opacity="1.000000" stroke="none" 
	d="
M70.125458,202.126831 
	C64.910423,206.525162 59.528519,207.468445 53.744350,204.366745 
	C48.702766,201.663239 46.662743,197.262390 46.757423,191.621307 
	C46.855888,185.754517 49.991150,181.975052 54.957237,179.645203 
	C59.866890,177.341827 66.456612,178.755569 70.112892,182.575745 
	C74.159294,186.803543 75.197456,191.776749 73.207573,197.240311 
	C72.601654,198.903976 71.353867,200.333862 70.125458,202.126831 
z"/>
<path fill="#FCFEFE" opacity="1.000000" stroke="none" 
	d="
M50.115166,110.801170 
	C45.119419,103.966187 45.885063,95.543091 51.628658,90.959610 
	C57.377125,86.372253 65.644287,86.969673 70.509460,92.324013 
	C75.606812,97.933868 75.368179,106.239685 69.955788,111.595985 
	C64.585548,116.910553 56.573154,116.696907 50.115166,110.801170 
z"/>
<path fill="#FCFEFE" opacity="1.000000" stroke="none" 
	d="
M145.190109,225.451935 
	C152.329834,230.402206 154.367859,236.442841 151.425385,243.136383 
	C148.691757,249.354843 141.554932,252.674393 134.861084,250.840927 
	C128.777283,249.174515 124.521667,242.939041 125.014595,236.413498 
	C125.734253,226.886505 135.213287,221.554596 145.190109,225.451935 
z"/>
</svg>