<svg xmlns="http://www.w3.org/2000/svg" id="Livello_1" data-name="Livello 1" viewBox="54.01 397.83 971.99 284.33">
  <defs>
    <style>
      .cls-1 {
        fill: #34475d;
      }

      .cls-1, .cls-2 {
        stroke-width: 0px;
      }

      .cls-2 {
        fill: #49a59a;
      }
    </style>
  </defs>
  <g>
    <path class="cls-1" d="M117.26,419.37c8.19,0,14.38,1.8,18.9,3.81l4.96-20.58c-3.94-2.2-13-4.59-25.16-4.59-31.82,0-59.42,20.8-59.42,62.34,0,33.61,19.08,58.94,56.75,58.94,12.35,0,22.1-2.28,26.44-4.4l-3.46-20.46c-4.55,1.81-12.06,3.19-18.94,3.19-20.82,0-33.81-13.71-33.81-38.74,0-27.13,15.07-39.51,33.74-39.51Z"/>
    <path class="cls-1" d="M197.98,397.83c-32.18,0-51.92,26.9-51.92,61.28s17.59,60.33,50.11,60.33,51.99-21.78,51.99-62.25c0-30.98-16.28-59.36-50.19-59.36ZM197.37,498.6c-15.26,0-24.38-15.53-24.38-39.75s8.89-40.17,24.29-40.17,23.97,18.32,23.97,39.47c0,23.24-8.32,40.44-23.87,40.44Z"/>
    <path class="cls-1" d="M344.28,399.6l-11.57,40.31c-3.73,13.69-7.32,28.58-10.12,42.08h-.51c-2.48-13.69-5.92-27.99-9.52-41.96l-10.89-40.44h-32.18l-7.83,118.07h23.2l2.14-43.66c.68-13.8,1.39-31.02,1.9-46.13h.39c2.59,14.74,6.27,30.88,9.62,43.48l11.84,44.38h19.41l13.2-44.87c3.77-12.51,8.19-28.62,11.46-42.99h.48c-.12,15.93.48,32.39,1.05,45.8l1.92,44h24.33l-6.59-118.07h-31.72Z"/>
    <path class="cls-1" d="M469.35,408.21c-7.85-6.57-19.35-9.41-34.92-9.41-14.04,0-24.72,1.04-32.43,2.42v116.45h25.38v-42.78c2.15.28,4.82.45,7.76.45,13.79,0,26.87-3.83,35.46-12.17,6.76-6.54,10.54-16.15,10.54-28.09,0-11.09-4.41-20.9-11.79-26.87ZM434.73,455.38c-3.15,0-5.44-.15-7.35-.57v-35.39c1.79-.47,5-.88,9.33-.88,12.62,0,19.08,6.97,19.08,17.66,0,11.68-7.67,19.18-21.06,19.18Z"/>
    <polygon class="cls-1" points="522.89 467.14 561.37 467.14 561.37 446.25 522.89 446.25 522.89 420.89 563.62 420.89 563.62 399.6 497.3 399.6 497.3 517.68 565.99 517.68 565.99 496.39 522.89 496.39 522.89 467.14"/>
    <polygon class="cls-1" points="575.22 421.67 603.78 421.67 603.78 517.68 629.37 517.68 629.37 421.67 658.28 421.67 658.28 399.6 575.22 399.6 575.22 421.67"/>
    <rect class="cls-1" x="671.77" y="399.6" width="25.59" height="118.07"/>
    <polygon class="cls-1" points="710.98 421.67 739.54 421.67 739.54 517.68 765.13 517.68 765.13 421.67 794.04 421.67 794.04 399.6 710.98 399.6 710.98 421.67"/>
    <rect class="cls-1" x="807.53" y="399.6" width="25.59" height="118.07"/>
    <path class="cls-1" d="M905.03,450.04c-3.44,13.44-6.7,27.5-9.24,41.63h-.39c-2.54-14.46-5.77-28.14-9.28-41.78l-12.51-50.28h-28.09l34.42,118.07h29.54l35.89-118.07h-27.44l-12.91,50.43Z"/>
    <polygon class="cls-1" points="982.9 496.39 982.9 467.14 1021.38 467.14 1021.38 446.25 982.9 446.25 982.9 420.89 1023.63 420.89 1023.63 399.6 957.31 399.6 957.31 517.68 1026 517.68 1026 496.39 982.9 496.39"/>
  </g>
  <g>
    <path class="cls-2" d="M159.88,610.14c-2.29,14.03-4.48,27.45-6.21,41.34h-.37c-1.65-13.85-3.65-26.64-6.07-40.3l-8.97-49.01h-25.51l-9.63,48.02c-2.83,14.54-5.58,28.34-7.41,41.72h-.39c-1.76-12.7-3.79-27.53-6.05-41.47l-8-48.28h-27.26l25.69,118.4h27.36l10.31-47.2c2.71-11.85,4.64-23.66,6.67-37.3h.35c1.51,13.74,3.33,25.59,5.57,37.19l9.15,47.31h27.39l27.62-118.4h-25.8l-8.44,47.97Z"/>
    <polygon class="cls-2" points="233.24 629.88 271.83 629.88 271.83 608.94 233.24 608.94 233.24 583.5 274.09 583.5 274.09 562.16 207.58 562.16 207.58 680.56 276.46 680.56 276.46 659.22 233.24 659.22 233.24 629.88"/>
    <polygon class="cls-2" points="319.67 562.16 294.01 562.16 294.01 680.56 361.73 680.56 361.73 658.99 319.67 658.99 319.67 562.16"/>
    <polygon class="cls-2" points="402.4 562.16 376.74 562.16 376.74 680.56 444.46 680.56 444.46 658.99 402.4 658.99 402.4 562.16"/>
    <path class="cls-2" d="M525.87,594.18c0,19.05.82,36.39,2.21,51.06l-.42.04c-4.73-12.44-11.31-27.36-17.34-38.78l-22.67-44.33h-28.17v118.4h23.27v-32.9c0-20.68-.49-37.89-1.27-52.44l.52-.04c4.84,12.9,11.88,28.01,18.03,39.95l23.15,45.43h25.97v-118.4h-23.27v32.01Z"/>
    <polygon class="cls-2" points="597.2 629.88 635.79 629.88 635.79 608.94 597.2 608.94 597.2 583.5 638.05 583.5 638.05 562.16 571.55 562.16 571.55 680.56 640.43 680.56 640.43 659.22 597.2 659.22 597.2 629.88"/>
    <path class="cls-2" d="M700.45,610.71c-14.57-6.36-20.23-9.81-20.23-17.21,0-6.12,5.31-11.68,16.44-11.68,10.03,0,17.52,2.95,21.81,5.15l5.24-20.97c-5.92-2.92-14.94-5.45-26.75-5.45-26.93,0-42.57,15.47-42.57,35.31,0,15.33,10.88,26.59,29.56,34.47,12.93,5.42,18.49,9.72,18.49,17.34s-6.19,13.06-18.05,13.06c-9.98,0-20.22-3.11-26.62-6.6l-4.79,21.45c5.81,3.31,17.96,6.58,30.22,6.58,29.74,0,45.13-16.12,45.13-36.49,0-15.44-8.51-26.65-27.89-34.97Z"/>
    <path class="cls-2" d="M787.58,610.71c-14.57-6.36-20.23-9.81-20.23-17.21,0-6.12,5.31-11.68,16.44-11.68,10.03,0,17.52,2.95,21.81,5.15l5.24-20.97c-5.92-2.92-14.94-5.45-26.75-5.45-26.93,0-42.57,15.47-42.57,35.31,0,15.33,10.88,26.59,29.56,34.47,12.93,5.42,18.49,9.72,18.49,17.34s-6.19,13.06-18.05,13.06c-9.98,0-20.22-3.11-26.62-6.6l-4.79,21.45c5.81,3.31,17.96,6.58,30.22,6.58,29.74,0,45.13-16.12,45.13-36.49,0-15.44-8.51-26.65-27.89-34.97Z"/>
  </g>
</svg>