<svg xmlns="http://www.w3.org/2000/svg" id="Livello_1" data-name="Livello 1" viewBox="55.71 413.39 971.79 253.21">
  <defs>
    <style>
      .cls-1 {
        fill: #34475d;
      }

      .cls-1, .cls-2 {
        stroke-width: 0px;
      }

      .cls-2 {
        fill: #49a59a;
      }
    </style>
  </defs>
  <g>
    <path class="cls-1" d="M390.84,531.86c-1.63,10-3.19,19.58-4.42,29.5h-.27c-1.17-9.88-2.61-19.01-4.32-28.76l-6.41-34.98h-18.2l-6.88,34.27c-2.02,10.38-3.97,20.23-5.29,29.78h-.27c-1.25-9.06-2.71-19.65-4.32-29.6l-5.71-34.45h-19.45l18.34,84.5h19.52l7.35-33.69c1.94-8.45,3.31-16.88,4.76-26.62h.25c1.08,9.81,2.39,18.27,3.98,26.55l6.53,33.76h19.54l19.72-84.5h-18.41l-6.03,34.24Z"/>
    <path class="cls-1" d="M457.15,496.35c-23.04,0-37.16,19.25-37.16,43.85s12.59,43.17,35.87,43.17,37.2-15.59,37.2-44.55c0-22.17-11.65-42.48-35.91-42.48ZM456.71,568.46c-10.93,0-17.45-11.11-17.45-28.44s6.36-28.74,17.38-28.74,17.15,13.11,17.15,28.25c0,16.62-5.95,28.94-17.08,28.94Z"/>
    <path class="cls-1" d="M547.18,542.51v-.36c7.67-3.02,14.35-10.66,14.35-20.87,0-7.62-2.42-13.46-7.48-17.67-5.85-4.84-14.43-6.57-25.9-6.57-8.99,0-17.31.72-23.16,1.77v83.3h18.16v-33.33h4.72c7.14.07,10.42,2.93,12.51,13.47,2.07,10.12,4.11,17.44,5.34,19.86h18.84c-1.62-3.21-4.08-14.07-6.4-23.57-1.97-8.17-5.16-13.69-10.98-16.03ZM529.28,535.3h-6.13v-23.84c1.21-.35,3.57-.59,7.21-.59,8.32.09,12.88,4.38,12.88,11.97s-5.19,12.46-13.97,12.46Z"/>
    <path class="cls-1" d="M637.11,497.62h-21.87l-16.77,27.82c-1.79,3.18-3.58,6.41-5.29,9.73h-.33v-37.55h-18.16v84.5h18.16v-27.73l6.17-8.26,18.24,35.99h20.95l-26.36-48.29,25.25-36.21Z"/>
    <rect class="cls-1" x="645.9" y="497.62" width="18.31" height="84.5"/>
    <path class="cls-1" d="M727.63,520.46c0,13.59.58,25.98,1.58,36.44l-.3.03c-3.37-8.87-8.07-19.52-12.37-27.67l-16.18-31.64h-20.11v84.5h16.61v-23.48c0-14.76-.35-27.04-.91-37.42l.37-.03c3.45,9.21,8.48,19.99,12.86,28.5l16.52,32.43h18.53v-84.5h-16.6v22.85Z"/>
    <path class="cls-1" d="M794.8,548.48h11.42v18.52c-1.27.57-4.05.97-7.52.97-13.24,0-23.32-9.35-23.32-27.66,0-19.45,11.14-28.04,25.63-28.04,7.73,0,12.66,1.31,16.66,3.09l3.65-14.96c-3.72-1.78-11.03-3.6-20.59-3.6-24.75,0-44.35,15.01-44.53,43.91-.1,13.06,4.03,24.49,11.64,31.77,7.12,6.91,17.11,10.43,30.82,10.43,9.64,0,19.77-2.36,24.99-4.21v-44.7h-28.87v14.47Z"/>
    <path class="cls-2" d="M869.01,497.62l-23.56,84.5h18.61l5.29-20.98h21.57l5.63,20.98h19.2l-23.34-84.5h-23.41ZM871.81,547.35l4.46-17.85c1.21-4.91,2.48-12.02,3.62-17.18h.27c1.15,5.14,2.55,12.11,3.8,17.15l4.53,17.88h-16.7Z"/>
    <path class="cls-2" d="M956.79,532.27c-10.39-4.54-14.44-7-14.44-12.28,0-4.36,3.79-8.34,11.73-8.34,7.16,0,12.5,2.1,15.57,3.67l3.74-14.97c-4.22-2.08-10.66-3.88-19.08-3.88-19.22,0-30.39,11.04-30.39,25.19,0,10.95,7.77,18.97,21.1,24.6,9.22,3.86,13.19,6.93,13.19,12.38s-4.41,9.32-12.88,9.32c-7.12,0-14.44-2.23-18.99-4.72l-3.42,15.31c4.14,2.36,12.82,4.7,21.57,4.7,21.22,0,32.21-11.51,32.21-26.04,0-11.03-6.07-19.02-19.91-24.95Z"/>
    <polygon class="cls-2" points="1011.6 497.62 990.12 507.92 993.26 522.3 1008.8 514.75 1009.06 514.75 1009.06 582.11 1027.5 582.11 1027.5 497.62 1011.6 497.62"/>
  </g>
  <path class="cls-2" d="M268.75,566.46c-2.43-1.4-4.98-2.38-7.58-2.96v-46.86c2.62-.58,5.2-1.57,7.64-2.98,12.93-7.46,17.35-23.99,9.89-36.91-7.46-12.92-23.98-17.35-36.9-9.89-2.43,1.4-4.56,3.12-6.36,5.08,0,0,0,0,0,0l-40.58-23.43s0,0,0,0c.81-2.56,1.24-5.28,1.24-8.11,0-14.92-12.09-27.01-27.01-27.01s-27.02,12.09-27.02,27.01c0,2.8.43,5.51,1.23,8.04l-40.59,23.43c-1.8-1.98-3.95-3.72-6.4-5.13-12.92-7.46-29.45-3.04-36.91,9.89-7.46,12.92-3.03,29.44,9.89,36.9,2.43,1.4,4.98,2.38,7.58,2.96v46.86c-2.62.58-5.2,1.57-7.64,2.98-12.93,7.46-17.35,23.99-9.89,36.91,7.46,12.92,23.98,17.35,36.9,9.89,2.43-1.4,4.56-3.12,6.36-5.08,0,0,0,0,0,0l40.58,23.43s0,0,0,0c-.81,2.56-1.24,5.28-1.24,8.11,0,14.92,12.09,27.01,27.01,27.01s27.02-12.09,27.02-27.01c0-2.8-.43-5.51-1.23-8.04l40.59-23.43c1.8,1.98,3.95,3.72,6.4,5.13,12.92,7.46,29.45,3.03,36.91-9.89,7.46-12.92,3.03-29.44-9.89-36.9ZM235.33,571.58s0,0,0,0l-18.63-10.76,20.83-20.83-20.73-20.73,18.6-10.74c3.8,4.15,8.74,6.92,14.05,8.1,0,0,0,0,0,0v46.84s0,0,0,0c-5.33,1.18-10.29,3.95-14.11,8.11ZM188.9,621.38c-3.69-4.03-8.57-6.94-14.08-8.15,0,0,0,0,0,0v-10.53h0s33.28-33.29,33.28-33.29l21.36,12.33c-1.7,5.37-1.63,11.02,0,16.21,0,0,0,0,0,0l-40.57,23.42s0,0,0,0ZM149.06,621.34l-40.58-23.43c1.65-5.21,1.73-10.89.03-16.28l21.33-12.31,33.25,33.25v10.66c-5.5,1.2-10.37,4.1-14.03,8.11ZM88.6,563.37s0,0,0,0v-46.84s0,0,0,0c5.33-1.18,10.29-3.95,14.11-8.11,0,0,0,0,0,0l18.63,10.76-20.83,20.83,20.73,20.73-18.6,10.74c-3.8-4.15-8.74-6.92-14.05-8.1ZM149.14,458.61c3.68,4.04,8.56,6.95,14.08,8.16,0,0,0,0,0,0v10.53l-33.29,33.29-21.36-12.33c1.7-5.37,1.63-11.02,0-16.21,0,0,0,0,0,0l40.57-23.43ZM188.98,458.66l40.58,23.43c-1.65,5.21-1.73,10.89-.03,16.28l-21.33,12.31-33.25-33.25v-10.66c5.5-1.2,10.37-4.1,14.03-8.11ZM162.5,582.11v-67.36h-.26l-15.54,7.55-3.15-14.38,21.49-10.3h15.9v84.49h-18.44ZM247.66,477.02c7.3-4.21,16.67-1.7,20.88,5.6,4.22,7.3,1.71,16.66-5.59,20.88-7.3,4.21-16.67,1.7-20.88-5.6-4.22-7.3-1.71-16.66,5.59-20.88ZM169.09,425.12c8.43,0,15.28,6.86,15.28,15.28s-6.85,15.29-15.28,15.29-15.29-6.86-15.29-15.29,6.86-15.28,15.29-15.28ZM69.56,482.5c4.22-7.3,13.58-9.81,20.88-5.59,7.3,4.21,9.81,13.58,5.6,20.88-4.22,7.3-13.58,9.81-20.88,5.59-7.3-4.21-9.81-13.58-5.6-20.88ZM90.38,602.98c-7.3,4.21-16.67,1.7-20.88-5.6-4.22-7.3-1.71-16.66,5.59-20.88,7.3-4.21,16.67-1.7,20.88,5.6,4.22,7.3,1.71,16.66-5.59,20.88ZM168.95,654.88c-8.43,0-15.28-6.86-15.28-15.28s6.85-15.29,15.28-15.29,15.29,6.86,15.29,15.29-6.86,15.28-15.29,15.28ZM268.48,597.5c-4.22,7.3-13.58,9.81-20.88,5.59-7.3-4.21-9.81-13.58-5.6-20.88,4.22-7.3,13.58-9.81,20.88-5.59,7.3,4.21,9.81,13.58,5.6,20.88Z"/>
</svg>